<?xml version="1.0" encoding="UTF-8" standalone="no"?>
<svg
   width="16"
   height="16"
   version="1.1"
   id="svg1"
   sodipodi:docname="icon_interactable_NPC.svg"
   inkscape:version="1.4.3 (0d15f75042, 2025-12-25)"
   xmlns:inkscape="http://www.inkscape.org/namespaces/inkscape"
   xmlns:sodipodi="http://sodipodi.sourceforge.net/DTD/sodipodi-0.dtd"
   xmlns="http://www.w3.org/2000/svg"
   xmlns:svg="http://www.w3.org/2000/svg">
  <defs
     id="defs1">
    <inkscape:path-effect
       effect="mirror_symmetry"
       start_point="7.9288446,-0.18974774"
       end_point="7.9288446,15.810252"
       center_point="7.9288446,7.8102523"
       id="path-effect2"
       is_visible="true"
       lpeversion="1.2"
       lpesatellites=""
       mode="vertical"
       discard_orig_path="false"
       fuse_paths="false"
       oposite_fuse="false"
       split_items="false"
       split_open="false"
       link_styles="false" />
    <inkscape:path-effect
       effect="mirror_symmetry"
       start_point="7.7906859,1.6686013"
       end_point="7.7906859,13.668449"
       center_point="7.7906859,7.668525"
       id="path-effect4"
       is_visible="true"
       lpeversion="1.2"
       lpesatellites=""
       mode="vertical"
       discard_orig_path="false"
       fuse_paths="false"
       oposite_fuse="false"
       split_items="false"
       split_open="false"
       link_styles="false" />
    <inkscape:path-effect
       effect="powerclip"
       message=""
       id="path-effect3"
       is_visible="true"
       lpeversion="1"
       inverse="true"
       flatten="false"
       hide_clip="false" />
    <filter
       id="mask-powermask-path-effect5_inverse"
       inkscape:label="filtermask-powermask-path-effect5"
       style="color-interpolation-filters:sRGB"
       height="100"
       width="100"
       x="-50"
       y="-50">
      <feColorMatrix
         id="mask-powermask-path-effect5_primitive1"
         values="1"
         type="saturate"
         result="fbSourceGraphic" />
      <feColorMatrix
         id="mask-powermask-path-effect5_primitive2"
         values="-1 0 0 0 1 0 -1 0 0 1 0 0 -1 0 1 0 0 0 1 0 "
         in="fbSourceGraphic" />
    </filter>
    <inkscape:path-effect
       effect="mirror_symmetry"
       start_point="7.701005,1.6351764"
       end_point="7.701005,13.635024"
       center_point="7.701005,7.6351"
       id="path-effect4-7"
       is_visible="true"
       lpeversion="1.2"
       lpesatellites=""
       mode="vertical"
       discard_orig_path="false"
       fuse_paths="false"
       oposite_fuse="false"
       split_items="false"
       split_open="false"
       link_styles="false" />
  </defs>
  <sodipodi:namedview
     id="namedview1"
     pagecolor="#ffffff"
     bordercolor="#000000"
     borderopacity="0.25"
     inkscape:showpageshadow="2"
     inkscape:pageopacity="0.0"
     inkscape:pagecheckerboard="0"
     inkscape:deskcolor="#d1d1d1"
     inkscape:zoom="42.161242"
     inkscape:cx="8.8588472"
     inkscape:cy="8.1591524"
     inkscape:window-width="2048"
     inkscape:window-height="1198"
     inkscape:window-x="0"
     inkscape:window-y="0"
     inkscape:window-maximized="1"
     inkscape:current-layer="layer3" />
  <g
     inkscape:groupmode="layer"
     id="layer1"
     inkscape:label="body"
     style="display:inline">
    <path
       id="path2"
       style="opacity:1;fill:#fc7f7f;fill-opacity:1;stroke:none;stroke-width:0.416741;stroke-opacity:0.39484"
       inkscape:label="hexagon"
       d="m 6.3214853,4.2618411 c -1.3121162,0 -2.6240662,0.072002 -2.8728792,0.2156544 C 2.95098,4.7648 0.57421879,8.8795276 0.57421879,9.4541367 c 0,0.5746093 2.37676121,4.6893363 2.87438731,4.9766413 0.497626,0.287304 5.2481322,0.287304 5.7457582,0 C 9.6919904,14.143473 12.067244,10.028746 12.067244,9.4541367 12.067244,8.8795276 9.6919904,4.7648 9.1943643,4.4774955 8.9455517,4.3338432 7.6336014,4.2618411 6.3214853,4.2618411 Z M 4.4167889,7.3850604 c 0.5275052,0 0.9515942,0.4942599 0.9515942,1.1084337 v 0.9123842 c 0,0.6141737 -0.424089,1.1084337 -0.9515942,1.1084337 -0.5275051,0 -0.9531022,-0.49426 -0.9531022,-1.1084337 V 8.4934941 c 0,-0.6141738 0.4255971,-1.1084337 0.9531022,-1.1084337 z m 3.7822475,0 c 0.5275055,0 0.9531021,0.4942599 0.9531021,1.1084337 v 0.9123842 c 0,0.6141737 -0.4255966,1.1084337 -0.9531021,1.1084337 -0.5275052,0 -0.9515942,-0.49426 -0.9515942,-1.1084337 V 8.4934941 c 0,-0.6141738 0.424089,-1.1084337 0.9515942,-1.1084337 z" />
  </g>
  <g
     inkscape:groupmode="layer"
     id="layer3"
     inkscape:label="talk-bubble">
    <path
       id="rect2"
       style="display:inline;fill:#ffffff;fill-opacity:1;stroke:#fc7f7f;stroke-width:0.5;stroke-dasharray:none;stroke-opacity:1"
       d="M 7.9737996,0.97685164 H 13.85598 c 0.657001,0 1.185923,0.52892176 1.185923,1.18592326 v 3.201993 c 0,0.6570015 -0.528922,1.1859233 -1.185923,1.1859233 h -0.498088 c 0,0 -0.237185,1.5179814 -3.178276,1.5654184 1.185924,-0.758991 0.02372,-1.5654184 0.02372,-1.5654184 H 7.9737992 c -0.6570016,0 -1.1859234,-0.5289218 -1.1859234,-1.1859233 v -3.201993 c 0,-0.6570015 0.5289218,-1.18592326 1.1859238,-1.18592326 z"
       sodipodi:nodetypes="ssssscccssss" />
  </g>
</svg>
